<svg width="136" height="20" viewBox="0 0 136 20" fill="none" xmlns="http://www.w3.org/2000/svg">
<g clip-path="url(#clip0)">
<path d="M1.36 19.144C0.896 19.144 0.52 19.008 0.232 18.736C-0.0399999 18.448 -0.176 18.064 -0.176 17.584V3.544C-0.176 3.08 -0.0479999 2.72 0.208 2.464C0.48 2.208 0.848 2.08 1.312 2.08H7.216C9.024 2.08 10.432 2.536 11.44 3.448C12.448 4.344 12.952 5.608 12.952 7.24C12.952 8.872 12.448 10.144 11.44 11.056C10.432 11.968 9.024 12.424 7.216 12.424H2.92V17.584C2.92 18.064 2.776 18.448 2.488 18.736C2.216 19.008 1.84 19.144 1.36 19.144ZM6.832 10.048C8.96 10.048 10.024 9.12 10.024 7.264C10.024 5.408 8.96 4.48 6.832 4.48H2.92V10.048H6.832ZM20.1871 6.976C21.8191 6.976 23.0271 7.384 23.8111 8.2C24.6111 9 25.0111 10.224 25.0111 11.872V17.728C25.0111 18.16 24.8831 18.504 24.6271 18.76C24.3711 19 24.0191 19.12 23.5711 19.12C23.1551 19.12 22.8111 18.992 22.5391 18.736C22.2831 18.48 22.1551 18.144 22.1551 17.728V17.2C21.8831 17.824 21.4511 18.312 20.8591 18.664C20.2831 19.016 19.6111 19.192 18.8431 19.192C18.0591 19.192 17.3471 19.032 16.7071 18.712C16.0671 18.392 15.5631 17.952 15.1951 17.392C14.8271 16.832 14.6431 16.208 14.6431 15.52C14.6431 14.656 14.8591 13.976 15.2911 13.48C15.7391 12.984 16.4591 12.624 17.4511 12.4C18.4431 12.176 19.8111 12.064 21.5551 12.064H22.1551V11.512C22.1551 10.728 21.9871 10.16 21.6511 9.808C21.3151 9.44 20.7711 9.256 20.0191 9.256C19.5551 9.256 19.0831 9.328 18.6031 9.472C18.1231 9.6 17.5551 9.792 16.8991 10.048C16.4831 10.256 16.1791 10.36 15.9871 10.36C15.6991 10.36 15.4591 10.256 15.2671 10.048C15.0911 9.84 15.0031 9.568 15.0031 9.232C15.0031 8.96 15.0671 8.728 15.1951 8.536C15.3391 8.328 15.5711 8.136 15.8911 7.96C16.4511 7.656 17.1151 7.416 17.8831 7.24C18.6671 7.064 19.4351 6.976 20.1871 6.976ZM19.4431 17.032C20.2431 17.032 20.8911 16.768 21.3871 16.24C21.8991 15.696 22.1551 15 22.1551 14.152V13.648H21.7231C20.6511 13.648 19.8191 13.696 19.2271 13.792C18.6351 13.888 18.2111 14.056 17.9551 14.296C17.6991 14.536 17.5711 14.864 17.5711 15.28C17.5711 15.792 17.7471 16.216 18.0991 16.552C18.4671 16.872 18.9151 17.032 19.4431 17.032ZM32.308 19.192C30.564 19.192 29.156 18.848 28.084 18.16C27.572 17.856 27.316 17.424 27.316 16.864C27.316 16.544 27.404 16.288 27.58 16.096C27.756 15.888 27.972 15.784 28.228 15.784C28.5 15.784 28.876 15.912 29.356 16.168C29.868 16.408 30.332 16.592 30.748 16.72C31.18 16.848 31.724 16.912 32.38 16.912C33.052 16.912 33.572 16.8 33.94 16.576C34.324 16.352 34.516 16.04 34.516 15.64C34.516 15.368 34.436 15.152 34.276 14.992C34.132 14.832 33.86 14.688 33.46 14.56C33.076 14.416 32.484 14.256 31.684 14.08C30.26 13.792 29.236 13.384 28.612 12.856C28.004 12.328 27.7 11.6 27.7 10.672C27.7 9.968 27.908 9.336 28.324 8.776C28.74 8.2 29.308 7.76 30.028 7.456C30.764 7.136 31.596 6.976 32.524 6.976C33.196 6.976 33.844 7.064 34.468 7.24C35.092 7.4 35.652 7.64 36.148 7.96C36.66 8.28 36.916 8.704 36.916 9.232C36.916 9.552 36.828 9.824 36.652 10.048C36.476 10.256 36.26 10.36 36.004 10.36C35.828 10.36 35.652 10.328 35.476 10.264C35.316 10.184 35.108 10.072 34.852 9.928C34.388 9.688 33.988 9.512 33.652 9.4C33.316 9.272 32.9 9.208 32.404 9.208C31.812 9.208 31.34 9.328 30.988 9.568C30.652 9.808 30.484 10.136 30.484 10.552C30.484 10.952 30.66 11.256 31.012 11.464C31.364 11.672 32.044 11.88 33.052 12.088C34.124 12.312 34.964 12.568 35.572 12.856C36.18 13.144 36.612 13.504 36.868 13.936C37.14 14.368 37.276 14.92 37.276 15.592C37.276 16.68 36.82 17.552 35.908 18.208C35.012 18.864 33.812 19.192 32.308 19.192ZM43.9564 19.192C42.2124 19.192 40.8044 18.848 39.7324 18.16C39.2204 17.856 38.9644 17.424 38.9644 16.864C38.9644 16.544 39.0524 16.288 39.2284 16.096C39.4044 15.888 39.6204 15.784 39.8764 15.784C40.1484 15.784 40.5244 15.912 41.0044 16.168C41.5164 16.408 41.9804 16.592 42.3964 16.72C42.8284 16.848 43.3724 16.912 44.0284 16.912C44.7004 16.912 45.2204 16.8 45.5884 16.576C45.9724 16.352 46.1644 16.04 46.1644 15.64C46.1644 15.368 46.0844 15.152 45.9244 14.992C45.7804 14.832 45.5084 14.688 45.1084 14.56C44.7244 14.416 44.1324 14.256 43.3324 14.08C41.9084 13.792 40.8844 13.384 40.2604 12.856C39.6524 12.328 39.3484 11.6 39.3484 10.672C39.3484 9.968 39.5564 9.336 39.9724 8.776C40.3884 8.2 40.9564 7.76 41.6764 7.456C42.4124 7.136 43.2444 6.976 44.1724 6.976C44.8444 6.976 45.4924 7.064 46.1164 7.24C46.7404 7.4 47.3004 7.64 47.7964 7.96C48.3084 8.28 48.5644 8.704 48.5644 9.232C48.5644 9.552 48.4764 9.824 48.3004 10.048C48.1244 10.256 47.9084 10.36 47.6524 10.36C47.4764 10.36 47.3004 10.328 47.1244 10.264C46.9644 10.184 46.7564 10.072 46.5004 9.928C46.0364 9.688 45.6364 9.512 45.3004 9.4C44.9644 9.272 44.5484 9.208 44.0524 9.208C43.4604 9.208 42.9884 9.328 42.6364 9.568C42.3004 9.808 42.1324 10.136 42.1324 10.552C42.1324 10.952 42.3084 11.256 42.6604 11.464C43.0124 11.672 43.6924 11.88 44.7004 12.088C45.7724 12.312 46.6124 12.568 47.2204 12.856C47.8284 13.144 48.2604 13.504 48.5164 13.936C48.7884 14.368 48.9244 14.92 48.9244 15.592C48.9244 16.68 48.4684 17.552 47.5564 18.208C46.6604 18.864 45.4604 19.192 43.9564 19.192ZM52.8449 19.144C52.4129 19.144 52.0529 19.024 51.7649 18.784C51.4929 18.528 51.3569 18.168 51.3569 17.704V8.44C51.3569 7.976 51.4929 7.624 51.7649 7.384C52.0529 7.144 52.4129 7.024 52.8449 7.024C53.2769 7.024 53.6369 7.144 53.9249 7.384C54.2129 7.624 54.3569 7.976 54.3569 8.44V17.704C54.3569 18.168 54.2129 18.528 53.9249 18.784C53.6369 19.024 53.2769 19.144 52.8449 19.144ZM52.8449 4.888C52.3009 4.888 51.8689 4.744 51.5489 4.456C51.2289 4.152 51.0689 3.76 51.0689 3.28C51.0689 2.8 51.2289 2.416 51.5489 2.128C51.8689 1.84 52.3009 1.696 52.8449 1.696C53.3729 1.696 53.7969 1.84 54.1169 2.128C54.4529 2.416 54.6209 2.8 54.6209 3.28C54.6209 3.76 54.4609 4.152 54.1409 4.456C53.8209 4.744 53.3889 4.888 52.8449 4.888ZM62.8026 19.192C61.6026 19.192 60.5466 18.944 59.6346 18.448C58.7386 17.952 58.0426 17.24 57.5466 16.312C57.0506 15.384 56.8026 14.304 56.8026 13.072C56.8026 11.84 57.0506 10.768 57.5466 9.856C58.0426 8.928 58.7386 8.216 59.6346 7.72C60.5466 7.224 61.6026 6.976 62.8026 6.976C64.0026 6.976 65.0506 7.224 65.9466 7.72C66.8586 8.216 67.5546 8.928 68.0346 9.856C68.5306 10.768 68.7786 11.84 68.7786 13.072C68.7786 14.304 68.5306 15.384 68.0346 16.312C67.5546 17.24 66.8586 17.952 65.9466 18.448C65.0506 18.944 64.0026 19.192 62.8026 19.192ZM62.7786 16.864C63.7546 16.864 64.4986 16.544 65.0106 15.904C65.5226 15.264 65.7786 14.32 65.7786 13.072C65.7786 11.84 65.5226 10.904 65.0106 10.264C64.4986 9.608 63.7626 9.28 62.8026 9.28C61.8426 9.28 61.0986 9.608 60.5706 10.264C60.0586 10.904 59.8026 11.84 59.8026 13.072C59.8026 14.32 60.0586 15.264 60.5706 15.904C61.0826 16.544 61.8186 16.864 62.7786 16.864ZM78.0713 6.976C79.4793 6.976 80.5273 7.376 81.2153 8.176C81.9033 8.976 82.2473 10.184 82.2473 11.8V17.704C82.2473 18.152 82.1113 18.504 81.8393 18.76C81.5833 19.016 81.2233 19.144 80.7593 19.144C80.2953 19.144 79.9273 19.016 79.6553 18.76C79.3833 18.504 79.2473 18.152 79.2473 17.704V11.968C79.2473 11.056 79.0713 10.392 78.7193 9.976C78.3833 9.56 77.8473 9.352 77.1113 9.352C76.2473 9.352 75.5513 9.624 75.0233 10.168C74.5113 10.712 74.2553 11.44 74.2553 12.352V17.704C74.2553 18.152 74.1193 18.504 73.8473 18.76C73.5753 19.016 73.2073 19.144 72.7433 19.144C72.2793 19.144 71.9113 19.016 71.6393 18.76C71.3833 18.504 71.2553 18.152 71.2553 17.704V8.416C71.2553 8 71.3913 7.664 71.6633 7.408C71.9353 7.152 72.3033 7.024 72.7673 7.024C73.1833 7.024 73.5193 7.152 73.7753 7.408C74.0473 7.648 74.1833 7.968 74.1833 8.368V9.016C74.5833 8.36 75.1193 7.856 75.7913 7.504C76.4633 7.152 77.2233 6.976 78.0713 6.976ZM91.2224 4.312C90.4864 4.36 89.9504 4.584 89.6144 4.984C89.2784 5.384 89.1104 5.96 89.1104 6.712V7.264H91.1504C92.0464 7.264 92.4944 7.64 92.4944 8.392C92.4944 9.144 92.0464 9.52 91.1504 9.52H89.1104V17.704C89.1104 18.168 88.9664 18.52 88.6784 18.76C88.4064 19 88.0544 19.12 87.6224 19.12C87.1904 19.12 86.8304 19 86.5424 18.76C86.2544 18.52 86.1104 18.168 86.1104 17.704V9.52H84.9104C84.0144 9.52 83.5664 9.144 83.5664 8.392C83.5664 7.64 84.0144 7.264 84.9104 7.264H86.1104V7.096C86.1104 5.592 86.5024 4.416 87.2864 3.568C88.0864 2.704 89.2064 2.216 90.6464 2.104L91.2704 2.056C91.9104 2.008 92.3584 2.08 92.6144 2.272C92.8864 2.448 93.0224 2.728 93.0224 3.112C93.0224 3.8 92.6304 4.184 91.8464 4.264L91.2224 4.312ZM100.448 7.024C100.864 6.992 101.192 7.08 101.432 7.288C101.672 7.496 101.792 7.808 101.792 8.224C101.792 8.656 101.688 8.976 101.48 9.184C101.272 9.392 100.896 9.528 100.352 9.592L99.6319 9.664C98.6879 9.76 97.9919 10.08 97.5439 10.624C97.1119 11.168 96.8959 11.848 96.8959 12.664V17.704C96.8959 18.168 96.7519 18.528 96.4639 18.784C96.1759 19.024 95.8159 19.144 95.3839 19.144C94.9519 19.144 94.5919 19.024 94.3039 18.784C94.0319 18.528 93.8959 18.168 93.8959 17.704V8.416C93.8959 7.968 94.0319 7.624 94.3039 7.384C94.5919 7.144 94.9439 7.024 95.3599 7.024C95.7759 7.024 96.1119 7.144 96.3679 7.384C96.6239 7.608 96.7519 7.936 96.7519 8.368V9.328C97.0559 8.624 97.5039 8.08 98.0959 7.696C98.7039 7.312 99.3759 7.096 100.112 7.048L100.448 7.024ZM112.347 7.024C112.811 7.024 113.179 7.152 113.451 7.408C113.723 7.664 113.859 8.008 113.859 8.44V17.752C113.859 18.168 113.715 18.504 113.427 18.76C113.155 19.016 112.795 19.144 112.347 19.144C111.915 19.144 111.571 19.024 111.315 18.784C111.059 18.544 110.931 18.216 110.931 17.8V17.2C110.563 17.84 110.067 18.336 109.443 18.688C108.819 19.024 108.115 19.192 107.331 19.192C104.451 19.192 103.011 17.576 103.011 14.344V8.44C103.011 8.008 103.147 7.664 103.419 7.408C103.691 7.152 104.051 7.024 104.499 7.024C104.963 7.024 105.331 7.152 105.603 7.408C105.875 7.664 106.011 8.008 106.011 8.44V14.368C106.011 15.2 106.179 15.816 106.515 16.216C106.851 16.616 107.379 16.816 108.099 16.816C108.931 16.816 109.595 16.544 110.091 16C110.603 15.44 110.859 14.704 110.859 13.792V8.44C110.859 8.008 110.995 7.664 111.267 7.408C111.539 7.152 111.899 7.024 112.347 7.024ZM118.47 19.144C118.038 19.144 117.678 19.024 117.39 18.784C117.118 18.528 116.982 18.168 116.982 17.704V8.44C116.982 7.976 117.118 7.624 117.39 7.384C117.678 7.144 118.038 7.024 118.47 7.024C118.902 7.024 119.262 7.144 119.55 7.384C119.838 7.624 119.982 7.976 119.982 8.44V17.704C119.982 18.168 119.838 18.528 119.55 18.784C119.262 19.024 118.902 19.144 118.47 19.144ZM118.47 4.888C117.926 4.888 117.494 4.744 117.174 4.456C116.854 4.152 116.694 3.76 116.694 3.28C116.694 2.8 116.854 2.416 117.174 2.128C117.494 1.84 117.926 1.696 118.47 1.696C118.998 1.696 119.422 1.84 119.742 2.128C120.078 2.416 120.246 2.8 120.246 3.28C120.246 3.76 120.086 4.152 119.766 4.456C119.446 4.744 119.014 4.888 118.47 4.888ZM129.172 16.912C129.972 16.96 130.372 17.32 130.372 17.992C130.372 18.376 130.212 18.672 129.892 18.88C129.588 19.072 129.148 19.152 128.572 19.12L127.924 19.072C125.236 18.88 123.892 17.44 123.892 14.752V9.52H122.692C122.26 9.52 121.924 9.424 121.684 9.232C121.46 9.04 121.348 8.76 121.348 8.392C121.348 8.024 121.46 7.744 121.684 7.552C121.924 7.36 122.26 7.264 122.692 7.264H123.892V5.056C123.892 4.624 124.028 4.28 124.3 4.024C124.572 3.768 124.94 3.64 125.404 3.64C125.852 3.64 126.212 3.768 126.484 4.024C126.756 4.28 126.892 4.624 126.892 5.056V7.264H128.932C129.364 7.264 129.692 7.36 129.916 7.552C130.156 7.744 130.276 8.024 130.276 8.392C130.276 8.76 130.156 9.04 129.916 9.232C129.692 9.424 129.364 9.52 128.932 9.52H126.892V14.968C126.892 16.152 127.436 16.784 128.524 16.864L129.172 16.912Z" fill="black"/>
<path d="M133.351 19.144C132.839 19.144 132.415 18.976 132.079 18.64C131.743 18.288 131.575 17.856 131.575 17.344C131.575 16.832 131.743 16.408 132.079 16.072C132.415 15.72 132.839 15.544 133.351 15.544C133.863 15.544 134.287 15.72 134.623 16.072C134.959 16.408 135.127 16.832 135.127 17.344C135.127 17.856 134.959 18.288 134.623 18.64C134.287 18.976 133.863 19.144 133.351 19.144Z" fill="#B04398"/>
</g>
<defs>
<clipPath id="clip0">
<rect width="136" height="20" fill="white"/>
</clipPath>
</defs>
</svg>
